<svg id="Capa_1" enable-background="new 0 0 512 512" height="512" viewBox="0 0 512 512" width="512" xmlns="http://www.w3.org/2000/svg"><g><g><path d="m398.415 424.792-134.4 84.888c-4.841 3.062-11.082 3.124-16.02 0l-134.4-84.888c-9.311-5.885-9.31-19.472 0-25.357l132.46-83.658c4.838-3.054 11.02-3.082 15.85-.1l136.35 83.659c9.456 5.788 9.534 19.528.16 25.456z" fill="#59c36a"/></g><path d="m398.415 424.792-134.4 84.888c-2.45 1.55-5.23 2.32-8.01 2.32v-198.413c4.537.598-4.94-4.561 142.25 85.748 9.456 5.789 9.534 19.529.16 25.457z" fill="#00a66c"/><g><path d="m406.315 212.581c-12.84 37.165-36.27 68.88-58.92 99.546-22.32 30.218-13.567 18.714-79.09 112.305-5.956 8.55-18.644 8.55-24.6 0-60.852-86.651-53.346-77.451-79.09-112.305-22.65-30.666-46.08-62.381-58.92-99.546-18.58-53.803-10.55-107.035 22.62-149.899 30.37-39.245 78.11-62.682 127.69-62.682s97.32 23.437 127.69 62.682c34.519 44.604 40.428 98.329 22.62 149.899z" fill="#ff4d4d"/></g><path d="m406.315 212.581c-12.84 37.165-36.27 68.88-58.92 99.546-22.32 30.218-13.567 18.714-79.09 112.305-2.8 4.019-7.4 6.419-12.3 6.419v-430.851c49.58 0 97.32 23.437 127.69 62.682 34.519 44.604 40.428 98.329 22.62 149.899z" fill="#cd0000"/><g><path d="m325.715 161.338c0 38.425-31.27 69.69-69.71 69.69s-69.71-31.266-69.71-69.69c0-38.435 31.27-69.7 69.71-69.7s69.71 31.265 69.71 69.7z" fill="#f0f7ff"/></g><path d="m325.715 161.338c0 38.425-31.27 69.69-69.71 69.69v-139.39c38.44 0 69.71 31.265 69.71 69.7z" fill="#dfe7f4"/></g></svg>