<?xml version="1.0" encoding="UTF-8"?>
<svg xmlns="http://www.w3.org/2000/svg" xmlns:xlink="http://www.w3.org/1999/xlink" width="1190.25pt" height="1683.749945pt" viewBox="0 0 1190.25 1683.749945" version="1.2">
<g id="surface1">
<path style=" stroke:none;fill-rule:nonzero;fill:rgb(13.729858%,12.159729%,12.548828%);fill-opacity:1;" d="M 625.019531 619.347656 C 635.667969 628.542969 646.25 637.816406 656.773438 647.183594 C 661.324219 651.21875 668.078125 645.070312 665.703125 639.96875 C 664.355469 637.0625 663.25 634.078125 662.085938 631.140625 C 665.683594 636.320312 669.261719 641.539062 672.800781 646.824219 C 669.015625 654.535156 664.632812 662.054688 659.691406 669.328125 L 647.742188 685.863281 C 644.441406 690.429688 649.589844 697.691406 654.945312 694.792969 C 671.957031 685.617188 685.972656 673.753906 697.746094 660.019531 C 706.722656 656.917969 715.820312 654.070312 724.683594 650.726562 C 723.054688 653.480469 721.378906 656.261719 719.621094 659.070312 C 716.796875 663.5625 720.09375 668.941406 725.371094 668.441406 C 732.65625 667.730469 739.925781 667.808594 747.171875 668.074219 C 746.992188 668.097656 746.832031 668.183594 746.675781 668.214844 C 739.828125 669.882812 740.503906 678.542969 747.023438 680.019531 C 758.347656 682.589844 769.714844 684.433594 781.132812 685.933594 C 772.925781 687.761719 764.707031 689.554688 756.429688 691.042969 C 749.8125 692.246094 749.960938 702.234375 756.777344 702.847656 C 760.457031 703.1875 764.074219 703.640625 767.6875 704.167969 C 762.917969 704.726562 753.964844 706.648438 745.164062 708.921875 C 744.917969 710.5 744.914062 730.746094 746.015625 736.152344 C 743.207031 731.195312 740.164062 726.339844 737.023438 721.492188 C 736.152344 721.152344 721.101562 717.273438 721.207031 717.976562 C 723.917969 738.734375 723.542969 759.496094 722.597656 780.277344 C 715.40625 762.015625 706.445312 744.703125 694.527344 728.425781 C 691.203125 723.917969 684.785156 726.75 683.957031 731.578125 C 681.472656 746.191406 678.652344 760.726562 675.832031 775.28125 C 675.265625 760.738281 675.042969 746.144531 674.480469 731.578125 C 674.277344 726.25 666.5 725.058594 663.796875 729.027344 C 653.335938 744.414062 644.679688 760.828125 635.648438 777.039062 C 640.410156 755.945312 644.394531 734.722656 646.945312 713.105469 C 647.441406 708.960938 642.59375 704.882812 638.648438 707.09375 C 616.722656 719.417969 598.003906 735.082031 580.414062 752.242188 C 591.445312 732.460938 603.675781 713.324219 614.824219 693.550781 C 617.542969 688.773438 613.449219 681.90625 607.621094 684.617188 C 585.339844 695.039062 563.664062 706.648438 541.722656 717.710938 C 558.296875 698.761719 576 680.796875 591.292969 660.734375 C 593.441406 657.9375 592.328125 652.570312 588.570312 651.675781 C 568.183594 646.828125 547.671875 643.222656 526.945312 640.6875 C 556.386719 621.746094 591.046875 622.414062 622.023438 639.066406 C 622.722656 640.585938 623.519531 642.035156 624.179688 643.589844 C 625.929688 647.730469 626.847656 622.394531 625.019531 619.347656 Z M 705.578125 512.402344 C 719.796875 518.820312 732.335938 518.433594 748.59375 517.550781 C 741.585938 542.042969 743.785156 554.773438 719.222656 601.847656 C 694.660156 648.941406 672.75 666.132812 672.75 666.132812 C 710.507812 623.703125 708.234375 548.492188 705.578125 512.402344 Z M 741.84375 506.109375 C 729.785156 506.773438 719.488281 506.4375 707.714844 500.335938 C 721.484375 497.382812 732.050781 498.171875 741.84375 506.109375 Z M 769.25 719.476562 C 764.0625 713.882812 754.769531 721.3125 759.980469 726.925781 C 803.019531 773.394531 784.855469 837.414062 753.382812 884.992188 C 719.371094 936.332031 663.570312 973.019531 609.089844 999.257812 C 561.398438 1022.214844 490.53125 1050.503906 443.367188 1013.308594 C 403.632812 981.957031 403.988281 909.824219 404.683594 864.765625 C 405.6875 799.21875 424.816406 729.367188 459.5625 673.722656 C 476.535156 646.546875 500.570312 621.816406 532.273438 613.316406 C 547.773438 609.160156 563.117188 610.390625 577.792969 614.800781 C 553.089844 613.957031 528.558594 621.9375 507.671875 640.246094 C 503.824219 643.625 505.429688 650.316406 510.8125 650.824219 C 532.75 652.945312 554.441406 656.269531 575.933594 660.980469 C 556.371094 685.1875 533.835938 706.777344 514.90625 731.558594 C 511.328125 736.269531 516.804688 742.980469 522.136719 740.5 C 546.789062 728.980469 570.726562 716.03125 595.109375 703.941406 C 579.96875 729.398438 564.1875 754.40625 552.425781 781.71875 C 549.5625 788.417969 558.585938 791.828125 562.820312 787.296875 C 584.695312 763.8125 606.523438 741.300781 633.402344 724.082031 C 629.210938 753.566406 622.820312 782.5 615.0625 811.332031 C 613.402344 817.480469 621.429688 822.769531 625.441406 816.890625 C 639.632812 796.171875 650.53125 773.566406 663.328125 752.054688 C 663.945312 775.140625 664.460938 798.128906 667.640625 821.113281 C 668.605469 828.109375 678.316406 827.167969 679.4375 820.746094 C 683.609375 796.28125 688.644531 771.984375 693.121094 747.5625 C 705.808594 767.738281 714.394531 789.257812 721.097656 812.53125 C 722.835938 818.511719 732.5625 819.496094 732.902344 812.164062 C 733.96875 788.238281 735.785156 764.398438 734.910156 740.558594 C 744.4375 757.074219 752.066406 774.25 757.78125 792.929688 C 759.789062 799.496094 770.214844 796.105469 769.078125 789.59375 C 764.785156 765.222656 758.773438 741.222656 754.433594 716.867188 C 769.019531 716.675781 783.199219 714.703125 797.308594 708.550781 C 803.179688 705.976562 801.023438 698.277344 795.5 697.171875 C 793.699219 696.824219 791.910156 696.472656 790.144531 696.113281 C 800.128906 693.882812 810.117188 691.640625 820.191406 689.820312 C 826.78125 688.621094 826.679688 678.621094 819.835938 678.015625 C 803.476562 676.589844 787.265625 674.96875 771.105469 672.433594 C 775.109375 670.964844 779.125 669.507812 783.246094 668.296875 C 790.464844 666.171875 789.1875 655.804688 781.363281 656.550781 C 765.902344 658.039062 750.550781 656.09375 735.140625 656.171875 C 738.726562 650.121094 742.578125 644.246094 748.097656 639.613281 C 753.089844 635.4375 747.933594 625.945312 741.992188 629.523438 C 732.125 635.4375 721.398438 639.496094 710.535156 643.203125 C 736.929688 604.117188 750.140625 554.722656 763.117188 509.898438 C 764.667969 504.476562 758.976562 500.765625 755.03125 502.210938 C 740.878906 487.199219 708.917969 487.898438 698.148438 496.21875 C 695.058594 496.554688 692.492188 499.285156 692.859375 502.953125 C 696.519531 539.695312 695.601562 576.746094 686.125 611.378906 C 685.199219 611.996094 679.703125 626.378906 677.351562 632.382812 C 666.746094 616.992188 655.867188 601.976562 647.75 584.890625 C 644.960938 579.03125 634.488281 581.546875 636.445312 588.234375 C 639.761719 599.613281 642.75 610.980469 646.3125 622.164062 C 620.066406 599.097656 593.492188 576.507812 565.34375 555.734375 C 559.171875 551.179688 552.277344 560.765625 558.375 565.378906 C 577.035156 579.492188 594.382812 595.761719 607.886719 614.785156 C 585.519531 602.957031 561.097656 596.441406 534.816406 600.636719 C 499.515625 606.261719 472.238281 634.15625 452.847656 662.28125 C 403.910156 733.253906 388.738281 827.144531 394.164062 911.53125 C 396.953125 954.792969 408.558594 1014.378906 453.402344 1033.972656 C 510.265625 1058.832031 579.371094 1027.832031 630.472656 1001.949219 C 717.15625 958.027344 864.8125 822.652344 769.25 719.476562 "/>
<path style=" stroke:none;fill-rule:nonzero;fill:rgb(13.729858%,12.159729%,12.548828%);fill-opacity:1;" d="M 462.007812 722.671875 C 462.789062 720.25 462.253906 717.601562 460.007812 715.972656 C 457.515625 714.175781 453.414062 714.566406 451.691406 717.304688 C 447.289062 724.339844 451.671875 729.875 457.433594 734.070312 C 463.636719 738.59375 470.601562 728.929688 464.398438 724.425781 C 463.742188 723.949219 462.246094 722.910156 462.007812 722.671875 "/>
<path style=" stroke:none;fill-rule:nonzero;fill:rgb(13.729858%,12.159729%,12.548828%);fill-opacity:1;" d="M 459.113281 782.589844 C 465.324219 787.074219 472.289062 777.433594 466.082031 772.949219 C 460.289062 768.761719 453.691406 766.332031 448.382812 772.738281 C 446.308594 775.238281 447.230469 779.246094 449.714844 781.042969 C 451.960938 782.671875 454.65625 782.355469 456.703125 780.847656 C 457 780.996094 458.457031 782.117188 459.113281 782.589844 "/>
<path style=" stroke:none;fill-rule:nonzero;fill:rgb(13.729858%,12.159729%,12.548828%);fill-opacity:1;" d="M 451.625 853.921875 C 451.96875 853.453125 452.320312 853 452.667969 852.53125 L 452.71875 852.523438 C 453.851562 852.257812 455.019531 852.105469 456.191406 851.910156 C 463.765625 850.6875 461.878906 838.941406 454.308594 840.171875 C 451.960938 840.539062 449.507812 840.867188 447.339844 841.867188 C 445.007812 842.921875 443.457031 844.960938 442.007812 846.957031 C 437.496094 853.175781 447.125 860.152344 451.625 853.921875 "/>
<path style=" stroke:none;fill-rule:nonzero;fill:rgb(13.729858%,12.159729%,12.548828%);fill-opacity:1;" d="M 460.5625 928.746094 C 460.90625 928.269531 461.25 927.792969 461.609375 927.328125 L 461.648438 927.34375 C 462.789062 927.074219 463.953125 926.898438 465.117188 926.71875 C 472.6875 925.5 470.808594 913.753906 463.230469 914.984375 C 460.894531 915.359375 458.441406 915.660156 456.265625 916.679688 C 453.957031 917.75 452.390625 919.757812 450.929688 921.777344 C 446.4375 927.972656 456.0625 934.945312 460.5625 928.746094 "/>
<path style=" stroke:none;fill-rule:nonzero;fill:rgb(13.729858%,12.159729%,12.548828%);fill-opacity:1;" d="M 474.652344 986.203125 C 480.578125 985.25 486.519531 984.28125 492.472656 983.328125 C 500.039062 982.117188 498.164062 970.371094 490.582031 971.59375 C 484.632812 972.542969 478.707031 973.484375 472.765625 974.441406 C 465.1875 975.65625 467.066406 987.402344 474.652344 986.203125 "/>
<path style=" stroke:none;fill-rule:nonzero;fill:rgb(13.729858%,12.159729%,12.548828%);fill-opacity:1;" d="M 553.824219 981.113281 L 553.992188 981.085938 C 554.730469 980.9375 555.464844 980.835938 556.210938 980.65625 C 558.921875 979.933594 560.859375 978.566406 562.640625 976.410156 C 567.417969 970.628906 558.347656 963.972656 553.390625 969.121094 L 553.210938 969.148438 C 552.496094 969.300781 551.746094 969.390625 551.011719 969.589844 C 548.292969 970.304688 546.351562 971.667969 544.5625 973.835938 C 539.816406 979.617188 548.875 986.285156 553.824219 981.113281 "/>
<path style=" stroke:none;fill-rule:nonzero;fill:rgb(13.729858%,12.159729%,12.548828%);fill-opacity:1;" d="M 548.128906 923.824219 L 553.097656 916.945312 C 557.59375 910.71875 547.992188 903.761719 543.492188 909.984375 L 538.515625 916.867188 C 534.011719 923.097656 543.621094 930.054688 548.128906 923.824219 "/>
<path style=" stroke:none;fill-rule:nonzero;fill:rgb(13.729858%,12.159729%,12.548828%);fill-opacity:1;" d="M 510.804688 881.035156 L 513.289062 877.59375 C 517.796875 871.371094 508.167969 864.390625 503.667969 870.621094 L 501.175781 874.0625 C 496.675781 880.289062 506.308594 887.257812 510.804688 881.035156 "/>
<path style=" stroke:none;fill-rule:nonzero;fill:rgb(13.729858%,12.159729%,12.548828%);fill-opacity:1;" d="M 564.863281 857.117188 L 567.367188 853.652344 C 571.851562 847.445312 562.21875 840.46875 557.730469 846.679688 L 555.226562 850.140625 C 550.734375 856.351562 560.371094 863.328125 564.863281 857.117188 "/>
<path style=" stroke:none;fill-rule:nonzero;fill:rgb(13.729858%,12.159729%,12.548828%);fill-opacity:1;" d="M 629.957031 902.1875 C 623.757812 897.699219 616.789062 907.335938 622.988281 911.828125 C 629.210938 916.335938 636.175781 906.691406 629.957031 902.1875 "/>
<path style=" stroke:none;fill-rule:nonzero;fill:rgb(13.729858%,12.159729%,12.548828%);fill-opacity:1;" d="M 627.164062 956.890625 C 633.390625 961.402344 640.359375 951.761719 634.136719 947.253906 C 627.9375 942.769531 620.964844 952.40625 627.164062 956.890625 "/>
<path style=" stroke:none;fill-rule:nonzero;fill:rgb(13.729858%,12.159729%,12.548828%);fill-opacity:1;" d="M 709.015625 916.320312 C 715.226562 920.824219 722.199219 911.175781 715.980469 906.679688 C 709.78125 902.183594 702.808594 911.828125 709.015625 916.320312 "/>
<path style=" stroke:none;fill-rule:nonzero;fill:rgb(13.729858%,12.159729%,12.548828%);fill-opacity:1;" d="M 687 866.800781 C 686.679688 864.816406 686.363281 862.828125 686.023438 860.847656 C 684.820312 853.277344 673.085938 855.160156 674.300781 862.734375 C 674.617188 864.726562 674.945312 866.699219 675.273438 868.683594 C 676.484375 876.261719 688.210938 874.371094 687 866.800781 "/>
<path style=" stroke:none;fill-rule:nonzero;fill:rgb(13.729858%,12.159729%,12.548828%);fill-opacity:1;" d="M 632.101562 858.503906 L 634.597656 855.050781 C 639.085938 848.84375 629.476562 841.886719 624.988281 848.085938 L 622.492188 851.542969 C 617.992188 857.761719 627.601562 864.726562 632.101562 858.503906 "/>
<path style=" stroke:none;fill-rule:nonzero;fill:rgb(13.729858%,12.159729%,12.548828%);fill-opacity:1;" d="M 741.4375 844.832031 C 747.25 847.265625 752.875 838.78125 747.109375 834.597656 C 744.597656 832.789062 742.503906 831.671875 739.351562 831.789062 C 736.46875 831.898438 734.371094 834.796875 732.863281 836.878906 C 728.660156 842.671875 736.667969 848.941406 741.4375 844.832031 "/>
<path style=" stroke:none;fill-rule:nonzero;fill:rgb(13.729858%,12.159729%,12.548828%);fill-opacity:1;" d="M 560.316406 809.675781 C 554.113281 805.179688 547.140625 814.816406 553.347656 819.316406 C 559.550781 823.804688 566.515625 814.167969 560.316406 809.675781 "/>
<path style=" stroke:none;fill-rule:nonzero;fill:rgb(13.729858%,12.159729%,12.548828%);fill-opacity:1;" d="M 511.667969 760.824219 L 511.597656 760.828125 L 511.585938 760.765625 C 510.355469 753.175781 498.621094 755.0625 499.855469 762.648438 C 500.417969 766.222656 501.085938 769.070312 503.804688 771.617188 C 506.289062 773.914062 510.605469 773.039062 513.546875 772.570312 C 521.136719 771.378906 519.238281 759.605469 511.667969 760.824219 "/>
<path style=" stroke:none;fill-rule:nonzero;fill:rgb(13.729858%,12.159729%,12.548828%);fill-opacity:1;" d="M 500.648438 684.425781 C 505.140625 678.214844 495.519531 671.25 491.03125 677.460938 L 488.527344 680.921875 C 484.042969 687.132812 493.660156 694.097656 498.144531 687.886719 L 500.648438 684.425781 "/>
<path style=" stroke:none;fill-rule:nonzero;fill:rgb(13.729858%,12.159729%,12.548828%);fill-opacity:1;" d="M 530.921875 683.265625 C 524.710938 678.753906 517.730469 688.402344 523.949219 692.90625 C 530.148438 697.394531 537.125 687.75 530.921875 683.265625 "/>
<path style=" stroke:none;fill-rule:nonzero;fill:rgb(13.729858%,12.159729%,12.548828%);fill-opacity:1;" d="M 488.578125 814.457031 C 494.796875 818.960938 501.769531 809.320312 495.550781 804.816406 C 489.339844 800.320312 482.367188 809.960938 488.578125 814.457031 "/>
<path style=" stroke:none;fill-rule:nonzero;fill:rgb(13.729858%,12.159729%,12.548828%);fill-opacity:1;" d="M 421.765625 819.695312 C 415.574219 815.210938 408.589844 824.863281 414.789062 829.355469 C 421 833.851562 427.976562 824.191406 421.765625 819.695312 "/>
<path style=" stroke:none;fill-rule:nonzero;fill:rgb(13.729858%,12.159729%,12.548828%);fill-opacity:1;" d="M 467.820312 894.03125 L 471.269531 896.53125 C 477.46875 901.023438 484.433594 891.390625 478.234375 886.90625 L 474.78125 884.398438 C 468.566406 879.902344 461.601562 889.527344 467.820312 894.03125 "/>
<path style=" stroke:none;fill-rule:nonzero;fill:rgb(13.729858%,12.159729%,12.548828%);fill-opacity:1;" d="M 429.546875 906.28125 L 431.421875 903.683594 C 435.90625 897.476562 426.277344 890.5 421.792969 896.710938 L 419.917969 899.300781 C 415.425781 905.511719 425.054688 912.492188 429.546875 906.28125 "/>
<path style=" stroke:none;fill-rule:nonzero;fill:rgb(13.729858%,12.159729%,12.548828%);fill-opacity:1;" d="M 438.367188 988 C 444.183594 990.429688 449.832031 981.941406 444.03125 977.761719 C 441.539062 975.964844 439.421875 974.847656 436.28125 974.953125 C 433.398438 975.0625 431.304688 977.960938 429.792969 980.054688 C 425.613281 985.828125 433.601562 992.125 438.367188 988 "/>
<path style=" stroke:none;fill-rule:nonzero;fill:rgb(13.729858%,12.159729%,12.548828%);fill-opacity:1;" d="M 520.011719 1010.699219 C 526.222656 1015.195312 533.1875 1005.558594 526.980469 1001.066406 C 520.765625 996.554688 513.800781 1006.195312 520.011719 1010.699219 "/>
<path style=" stroke:none;fill-rule:nonzero;fill:rgb(13.729858%,12.159729%,12.548828%);fill-opacity:1;" d="M 520.457031 937.425781 C 526.667969 941.925781 533.636719 932.277344 527.433594 927.789062 C 521.234375 923.296875 514.261719 932.941406 520.457031 937.425781 "/>
<path style=" stroke:none;fill-rule:nonzero;fill:rgb(13.729858%,12.159729%,12.548828%);fill-opacity:1;" d="M 562.347656 879.488281 L 558.910156 876.996094 C 552.691406 872.492188 545.726562 882.128906 551.9375 886.640625 L 555.375 889.128906 C 561.585938 893.625 568.558594 883.984375 562.347656 879.488281 "/>
<path style=" stroke:none;fill-rule:nonzero;fill:rgb(13.729858%,12.159729%,12.548828%);fill-opacity:1;" d="M 602.519531 940.140625 C 596.320312 935.648438 589.359375 945.273438 595.558594 949.765625 C 601.785156 954.269531 608.742188 944.648438 602.519531 940.140625 "/>
<path style=" stroke:none;fill-rule:nonzero;fill:rgb(13.729858%,12.159729%,12.548828%);fill-opacity:1;" d="M 657.449219 936.796875 C 663.667969 941.300781 670.640625 931.652344 664.421875 927.15625 C 658.222656 922.660156 651.25 932.304688 657.449219 936.796875 "/>
<path style=" stroke:none;fill-rule:nonzero;fill:rgb(13.729858%,12.159729%,12.548828%);fill-opacity:1;" d="M 601.441406 876.261719 C 595.230469 871.761719 588.261719 881.410156 594.464844 885.90625 C 600.683594 890.410156 607.660156 880.765625 601.441406 876.261719 "/>
<path style=" stroke:none;fill-rule:nonzero;fill:rgb(13.729858%,12.159729%,12.548828%);fill-opacity:1;" d="M 661.800781 872.679688 C 655.601562 868.1875 648.636719 877.828125 654.835938 882.3125 C 661.042969 886.808594 668.007812 877.167969 661.800781 872.679688 "/>
<path style=" stroke:none;fill-rule:nonzero;fill:rgb(13.729858%,12.159729%,12.548828%);fill-opacity:1;" d="M 729.179688 871.007812 L 726.675781 874.46875 C 722.183594 880.679688 731.832031 887.664062 736.320312 881.460938 L 738.824219 877.992188 C 743.316406 871.789062 733.667969 864.796875 729.179688 871.007812 "/>
<path style=" stroke:none;fill-rule:nonzero;fill:rgb(13.729858%,12.159729%,12.548828%);fill-opacity:1;" d="M 550.6875 844.757812 C 544.488281 840.273438 537.519531 849.914062 543.71875 854.40625 C 549.921875 858.902344 556.898438 849.257812 550.6875 844.757812 "/>
<path style=" stroke:none;fill-rule:nonzero;fill:rgb(13.729858%,12.159729%,12.548828%);fill-opacity:1;" d="M 505.296875 827.644531 C 499.097656 823.15625 492.125 832.792969 498.324219 837.285156 C 504.542969 841.789062 511.515625 832.148438 505.296875 827.644531 "/>
</g>
</svg>
